<svg version="1.1" xmlns="http://www.w3.org/2000/svg" style="display: block;" viewBox="0 0 2048 2045" width="1312" height="1310" preserveAspectRatio="none">
<defs>
	<linearGradient id="Gradient1" gradientUnits="userSpaceOnUse" x1="973.221" y1="1715.89" x2="998.023" y2="1737.67">
		<stop class="stop0" offset="0" stop-opacity="1" stop-color="rgb(159,158,160)"/>
		<stop class="stop1" offset="1" stop-opacity="1" stop-color="rgb(188,187,187)"/>
	</linearGradient>
	<linearGradient id="Gradient2" gradientUnits="userSpaceOnUse" x1="782.828" y1="1710.57" x2="800.489" y2="1757.88">
		<stop class="stop0" offset="0" stop-opacity="1" stop-color="rgb(174,172,173)"/>
		<stop class="stop1" offset="1" stop-opacity="1" stop-color="rgb(209,209,209)"/>
	</linearGradient>
	<linearGradient id="Gradient3" gradientUnits="userSpaceOnUse" x1="1877.52" y1="1709.78" x2="1879.77" y2="1746.42">
		<stop class="stop0" offset="0" stop-opacity="1" stop-color="rgb(165,165,165)"/>
		<stop class="stop1" offset="1" stop-opacity="1" stop-color="rgb(196,196,196)"/>
	</linearGradient>
	<linearGradient id="Gradient4" gradientUnits="userSpaceOnUse" x1="1662.72" y1="1733.68" x2="1666.28" y2="1808.13">
		<stop class="stop0" offset="0" stop-opacity="1" stop-color="rgb(187,187,187)"/>
		<stop class="stop1" offset="1" stop-opacity="1" stop-color="rgb(240,239,238)"/>
	</linearGradient>
	<linearGradient id="Gradient5" gradientUnits="userSpaceOnUse" x1="178.919" y1="1658.61" x2="177.333" y2="1711.25">
		<stop class="stop0" offset="0" stop-opacity="1" stop-color="rgb(166,165,166)"/>
		<stop class="stop1" offset="1" stop-opacity="1" stop-color="rgb(214,214,213)"/>
	</linearGradient>
	<linearGradient id="Gradient6" gradientUnits="userSpaceOnUse" x1="183.022" y1="1753.98" x2="182.953" y2="1808.06">
		<stop class="stop0" offset="0" stop-opacity="1" stop-color="rgb(165,164,164)"/>
		<stop class="stop1" offset="1" stop-opacity="1" stop-color="rgb(223,223,223)"/>
	</linearGradient>
	<linearGradient id="Gradient7" gradientUnits="userSpaceOnUse" x1="1150.41" y1="868.068" x2="1202.41" y2="932.837">
		<stop class="stop0" offset="0" stop-opacity="1" stop-color="rgb(164,163,163)"/>
		<stop class="stop1" offset="1" stop-opacity="1" stop-color="rgb(239,239,238)"/>
	</linearGradient>
	<linearGradient id="Gradient8" gradientUnits="userSpaceOnUse" x1="755.81" y1="942.675" x2="809.637" y2="1001.78">
		<stop class="stop0" offset="0" stop-opacity="1" stop-color="rgb(162,161,161)"/>
		<stop class="stop1" offset="1" stop-opacity="1" stop-color="rgb(239,238,237)"/>
	</linearGradient>
	<linearGradient id="Gradient9" gradientUnits="userSpaceOnUse" x1="982.395" y1="943.336" x2="1035.74" y2="997.405">
		<stop class="stop0" offset="0" stop-opacity="1" stop-color="rgb(169,168,168)"/>
		<stop class="stop1" offset="1" stop-opacity="1" stop-color="rgb(238,238,237)"/>
	</linearGradient>
	<linearGradient id="Gradient10" gradientUnits="userSpaceOnUse" x1="947.914" y1="859.61" x2="1002.74" y2="915.068">
		<stop class="stop0" offset="0" stop-opacity="1" stop-color="rgb(166,165,165)"/>
		<stop class="stop1" offset="1" stop-opacity="1" stop-color="rgb(243,242,241)"/>
	</linearGradient>
</defs>
<path transform="translate(0,0)" fill="rgb(229,229,228)" d="M 0 0 L 2048 0 L 2048 2045 L 0 2045 L 0 0 z"/>
<path transform="translate(0,0)" fill="rgb(174,52,42)" d="M 1142.32 523.217 C 1161.88 540.621 1187.8 560.843 1208.39 577.697 L 1314.96 665.622 L 1352.66 696.78 C 1360.68 703.364 1370.51 710.807 1377.61 718.175 L 1365.32 735.696 C 1367.66 739.773 1369.31 742.577 1371.21 746.932 C 1368.98 749.114 1366.17 749.259 1366.24 749.185 C 1362.03 754.062 1362.13 762.875 1358.64 768.126 C 1346.63 786.153 1344.37 791.92 1341.87 813.472 C 1337.96 839.231 1335.12 870.495 1323.54 894.065 C 1316.14 906.792 1305.85 918.154 1297.8 930.358 C 1284.58 950.419 1270.52 966.9 1253.82 984.054 C 1245.63 992.458 1238.19 1005.16 1230.12 1013.91 C 1225.4 1019.03 1219.72 1023.15 1215.12 1028.37 C 1184.85 1070.41 1148.78 1108.13 1116.06 1148.29 C 1104.1 1162.97 1090.03 1176.81 1077.8 1191.39 L 1004.03 1279.39 C 987.287 1299.76 975.281 1317.08 955.89 1335.71 C 937.516 1353.35 939.547 1360.57 909.115 1360.33 C 885.218 1360.14 882.499 1349.24 868.347 1333.06 C 860.311 1325.84 848.855 1319.32 840.99 1312.3 C 825.717 1298.67 807.275 1286.6 792.273 1273.27 C 763.418 1247.63 735.405 1224.05 704.135 1201.34 C 680.336 1184.05 660.055 1158.91 636.874 1140.56 C 632.627 1137 627.401 1132.42 623.86 1128.51 C 616.711 1120.62 622.9 1111.5 611.01 1106.69 C 610.27 1106.39 610.475 1100.02 610.511 1098.82 C 608.222 1090.24 607.097 1081.4 607.166 1072.52 C 607.319 1063.27 609.356 1055.72 615.266 1048.57 C 626.778 1034.65 639.033 1020.78 650.784 1007.03 C 673.104 980.413 695.666 953.994 718.466 927.782 L 863.378 757.796 L 947.713 658.733 C 958.471 646.025 985.019 613.307 995.887 604.244 C 1019.71 584.375 1075.07 575.522 1103 558.795 C 1112.21 553.281 1133.55 531.676 1142.32 523.217 z"/>
<path transform="translate(0,0)" fill="rgb(178,178,178)" d="M 1365.32 735.696 C 1367.66 739.773 1369.31 742.577 1371.21 746.932 C 1368.98 749.114 1366.17 749.259 1366.24 749.185 C 1362.03 754.062 1362.13 762.875 1358.64 768.126 C 1346.63 786.153 1344.37 791.92 1341.87 813.472 C 1337.96 839.231 1335.12 870.495 1323.54 894.065 C 1316.14 906.792 1305.85 918.154 1297.8 930.358 C 1284.58 950.419 1270.52 966.9 1253.82 984.054 C 1245.63 992.458 1238.19 1005.16 1230.12 1013.91 C 1225.4 1019.03 1219.72 1023.15 1215.12 1028.37 C 1184.85 1070.41 1148.78 1108.13 1116.06 1148.29 C 1104.1 1162.97 1090.03 1176.81 1077.8 1191.39 L 1004.03 1279.39 C 987.287 1299.76 975.281 1317.08 955.89 1335.71 C 937.516 1353.35 939.547 1360.57 909.115 1360.33 C 885.218 1360.14 882.499 1349.24 868.347 1333.06 C 860.311 1325.84 848.855 1319.32 840.99 1312.3 C 825.717 1298.67 807.275 1286.6 792.273 1273.27 C 763.418 1247.63 735.405 1224.05 704.135 1201.34 C 680.336 1184.05 660.055 1158.91 636.874 1140.56 C 632.627 1137 627.401 1132.42 623.86 1128.51 C 616.711 1120.62 622.9 1111.5 611.01 1106.69 C 610.27 1106.39 610.475 1100.02 610.511 1098.82 C 616.029 1108.84 668.411 1148.65 680.478 1158.59 L 806.631 1262.68 C 835.515 1286.31 868.5 1311.88 895.541 1337.03 C 917.406 1337.73 931.002 1339.28 946.672 1321.77 C 956.501 1310.78 965.846 1299.69 975.311 1288.38 L 1021.53 1233.58 L 1200.57 1022.2 L 1290.84 916.043 C 1298.81 906.507 1320.16 883.177 1325.32 874.072 C 1341.45 845.584 1337.18 797.553 1348.66 765.948 C 1352.74 754.713 1358.73 745.463 1365.32 735.696 z"/>
<path transform="translate(0,0)" fill="url(#Gradient10)" d="M 1079.59 748.451 C 1083.71 750.091 1086 750.511 1086.76 755.15 C 1082.38 762.264 1073.77 771.528 1068.5 778.463 C 1053.25 798.54 1035.56 818.394 1020.61 838.508 C 1026.31 843.582 1035.41 850.189 1041.65 855.007 C 1024.94 877.694 1005.05 899.042 987.593 921.252 C 969.445 944.338 949.715 966.539 932.065 990.015 C 925.228 984.625 918.472 979.133 911.799 973.541 C 897.705 988.327 882.976 1011.32 868.733 1024.92 C 865.212 1023.01 864.956 1022.74 864.071 1019.83 C 865.469 1013.41 897.11 976.367 903.882 966.655 C 897.035 960.961 889.958 955.549 882.669 950.433 C 891.691 937.661 909.339 917.307 919.751 904.356 C 943.548 874.732 967.132 844.937 990.502 814.974 C 996.64 820.372 1006.52 827.54 1013.21 832.724 C 1035.39 806.189 1058.21 775.822 1079.59 748.451 z"/>
<path transform="translate(0,0)" fill="url(#Gradient9)" d="M 1077.1 846.824 C 1084.93 852.858 1091.78 858.041 1099.49 864.392 L 1101.42 864.014 C 1102.63 866.98 1104.52 867.882 1107.15 869.782 C 1113.24 876.006 1120.29 881.617 1126.99 887.209 C 1099.85 921.374 1071.15 954.344 1044.11 988.611 C 1037.79 996.621 1031.4 1004.13 1025.65 1012.58 C 1018.36 1006.91 1011.72 1001.31 1004.7 995.339 C 980.617 1022.45 957.054 1052.61 934.297 1080.97 C 931.101 1084.95 929.292 1087.05 924.449 1087.42 C 921.518 1085.15 922.592 1086.54 921.171 1083.05 C 923.02 1078.1 988.863 998.988 997.422 988.711 C 992.261 983.862 981.975 976.149 976.174 971.489 C 983.65 961.365 994.379 950.109 1002.29 939.856 C 1026.3 908.711 1053.56 878.122 1077.1 846.824 z"/>
<path transform="translate(0,0)" fill="url(#Gradient8)" d="M 840.704 862.521 C 847.988 868.299 855.389 874.368 863.01 879.654 C 865.478 881.441 868.036 882.958 869.919 885.229 C 871.86 889.875 887.029 899.729 891.916 903.165 C 872.253 928.615 849.921 953.179 830.227 978.81 C 822.005 989.511 812.936 999.526 805.56 1010.9 L 784.045 993.414 C 766.394 1013.36 750.467 1035.46 733.097 1055.69 C 727.577 1062.12 717.645 1078.66 709.864 1079.82 C 707.24 1077.6 706.559 1074.21 708.725 1071.39 C 730.554 1042.99 755.057 1015.56 776.347 986.857 C 769.808 980.676 762.917 974.878 755.709 969.492 C 785.126 935.66 813.623 898.156 840.704 862.521 z"/>
<path transform="translate(0,0)" fill="url(#Gradient7)" d="M 1219.41 809.789 C 1227.03 815.206 1232.87 821.155 1241.27 826.75 C 1245.54 828.597 1245.93 828.953 1249.65 831.88 C 1249.03 835.643 1265.55 847.516 1269.08 850.484 C 1244.6 882.961 1216.38 912.814 1192.18 946.223 C 1184.7 940.583 1178.88 936.124 1171.87 929.8 C 1158.1 944.281 1134.53 974.376 1121.03 991.221 C 1120.53 991.315 1120.04 991.408 1119.54 991.502 C 1116.65 989.197 1116.43 989.296 1114.74 985.864 C 1118.52 975.969 1155.13 937.104 1163.06 923.441 C 1156.24 917.432 1149.02 911.897 1141.45 906.873 C 1150.22 894.442 1162.77 880.054 1172.57 868.059 L 1219.41 809.789 z"/>
<path transform="translate(0,0)" fill="rgb(178,178,178)" d="M 1101.42 864.014 C 1118.24 840.025 1143.46 809.996 1162.16 786.301 L 1185.7 756.643 C 1188.85 752.678 1193.46 745.091 1197.86 743.452 C 1202.19 743.682 1200.36 742.969 1203.67 745.34 C 1204.58 750.409 1196.03 759.731 1192.61 763.718 C 1163.16 798.044 1136.47 835.51 1107.15 869.782 C 1104.52 867.882 1102.63 866.98 1101.42 864.014 z"/>
<path transform="translate(0,0)" fill="rgb(178,178,178)" d="M 863.01 879.654 C 870.388 870.419 913.436 813.65 918.61 811.62 C 922.082 812.554 920.542 811.718 923.199 814.541 C 923.453 818.195 923.094 819.494 920.323 822.596 C 903.086 841.888 886.995 866.117 869.919 885.229 C 868.036 882.958 865.478 881.441 863.01 879.654 z"/>
<path transform="translate(0,0)" fill="rgb(178,178,178)" d="M 1241.27 826.75 L 1269.06 791.846 C 1274.13 785.374 1282.89 773.343 1288.51 768.105 C 1292.47 767.8 1290.56 767.476 1294.35 769.608 C 1295.13 771.161 1296.11 772.762 1294.76 774.527 C 1279.97 793.856 1264.2 812.307 1249.65 831.88 C 1245.93 828.953 1245.54 828.597 1241.27 826.75 z"/>
<path transform="translate(0,0)" fill="rgb(174,52,42)" d="M 1172.11 492.948 C 1239.37 414.44 1343.19 346.912 1440.59 313.016 C 1466.02 304.168 1513.27 288.365 1530.24 318.414 C 1539.29 334.437 1537.24 357.818 1535.97 375.7 C 1538.39 398.219 1527.97 429.258 1523.36 451.443 C 1521.06 462.552 1518.58 483.493 1513.96 493.18 C 1500.23 521.918 1490.87 550.531 1482.07 580.794 C 1473.02 599.861 1458.42 616.93 1448.47 635.718 C 1441.86 648.187 1437.34 659.499 1430.17 671.327 C 1423.69 682.026 1407.23 698.032 1393.7 692.798 C 1374.32 685.299 1356.37 663.803 1339.67 651.271 C 1334.23 646.83 1329.51 640.043 1323.95 635.899 C 1300.97 618.782 1275.43 603.487 1254.98 583.003 C 1238.62 566.617 1218.32 549.146 1202.49 532.465 C 1195.44 525.036 1201.11 517.413 1187.35 510.418 C 1185.93 507.169 1186.3 508.909 1186.87 504.918 C 1182.26 501.491 1176.66 496.652 1172.11 492.948 z"/>
<path transform="translate(0,0)" fill="rgb(178,178,178)" d="M 1535.97 375.7 C 1538.39 398.219 1527.97 429.258 1523.36 451.443 C 1521.06 462.552 1518.58 483.493 1513.96 493.18 C 1500.23 521.918 1490.87 550.531 1482.07 580.794 C 1473.02 599.861 1458.42 616.93 1448.47 635.718 C 1441.86 648.187 1437.34 659.499 1430.17 671.327 C 1423.69 682.026 1407.23 698.032 1393.7 692.798 C 1374.32 685.299 1356.37 663.803 1339.67 651.271 C 1334.23 646.83 1329.51 640.043 1323.95 635.899 C 1300.97 618.782 1275.43 603.487 1254.98 583.003 C 1238.62 566.617 1218.32 549.146 1202.49 532.465 C 1195.44 525.036 1201.11 517.413 1187.35 510.418 C 1185.93 507.169 1186.3 508.909 1186.87 504.918 L 1333.02 625.794 C 1348.65 638.742 1388.13 670.046 1401.53 684.151 C 1454.29 622.777 1503.63 517.311 1524.03 439.33 C 1529.71 417.646 1532.05 397.414 1535.97 375.7 z"/>
<path transform="translate(0,0)" fill="rgb(174,52,42)" d="M 81.2488 1616.35 C 104.542 1615.83 128.737 1617.18 151.882 1616.34 C 201.544 1614.52 290.602 1613.04 275.607 1689.69 C 278.129 1694.74 279.494 1699.95 278.889 1705.62 L 278.222 1706.41 L 277.417 1703.21 L 276.948 1706.03 L 276.027 1705.46 C 275.894 1702.72 275.603 1701.87 276.609 1699.33 L 276.413 1698.56 C 270.862 1707.99 264.354 1722.3 262.781 1732.98 L 263.905 1734.7 L 266.054 1734.12 L 265.457 1735.94 L 265.603 1736.64 L 268.154 1734.81 L 268.888 1735.53 C 267.91 1740.79 267.723 1738.6 269.901 1743.81 C 282.505 1758.29 289.006 1772.74 287.654 1792.31 C 287.473 1794.81 287.252 1797.32 286.992 1799.82 C 288.948 1811.69 285.774 1811.24 282.722 1821.91 C 281.975 1824.52 284.524 1831.26 283.06 1834.77 C 275.786 1837.33 271.472 1859.85 255.402 1867.54 C 222.511 1883.28 186.432 1876.37 151.18 1876.56 C 134.272 1876.58 117.541 1879.72 101.517 1874.96 C 93.4553 1872.35 88.6952 1857.23 84.1509 1854.82 L 83.0677 1855.33 L 82.8828 1857.78 L 80.3809 1858.72 C 79.9298 1855.11 80.3501 1853.77 80.9589 1850.24 C 81.9654 1824.98 81.2048 1793.45 81.1831 1767.75 L 81.2488 1616.35 z"/>
<path transform="translate(0,0)" fill="rgb(178,178,178)" d="M 286.992 1799.82 C 288.948 1811.69 285.774 1811.24 282.722 1821.91 C 281.975 1824.52 284.524 1831.26 283.06 1834.77 C 275.786 1837.33 271.472 1859.85 255.402 1867.54 C 222.511 1883.28 186.432 1876.37 151.18 1876.56 C 134.272 1876.58 117.541 1879.72 101.517 1874.96 C 93.4553 1872.35 88.6952 1857.23 84.1509 1854.82 L 83.0677 1855.33 L 82.8828 1857.78 L 80.3809 1858.72 C 79.9298 1855.11 80.3501 1853.77 80.9589 1850.24 C 85.0949 1852.17 145.667 1850.95 155.8 1851.02 C 176.221 1851.16 205.473 1852.38 225.373 1849.79 C 256.199 1845.78 279.637 1831.71 286.992 1799.82 z"/>
<path transform="translate(0,0)" fill="rgb(178,178,178)" d="M 243.163 1728.96 C 245.101 1727.94 247.022 1726.89 248.923 1725.8 C 264.889 1716.7 270.897 1706.8 275.607 1689.69 C 278.129 1694.74 279.494 1699.95 278.889 1705.62 L 278.222 1706.41 L 277.417 1703.21 L 276.948 1706.03 L 276.027 1705.46 C 275.894 1702.72 275.603 1701.87 276.609 1699.33 L 276.413 1698.56 C 270.862 1707.99 264.354 1722.3 262.781 1732.98 L 263.905 1734.7 L 266.054 1734.12 L 265.457 1735.94 L 265.603 1736.64 L 268.154 1734.81 L 268.888 1735.53 C 267.91 1740.79 267.723 1738.6 269.901 1743.81 C 259.354 1735.69 255.664 1733.81 243.163 1728.96 z"/>
<path transform="translate(0,0)" fill="url(#Gradient6)" d="M 147.033 1752.48 C 169.211 1752.13 215.729 1746.5 230.212 1766.84 C 234.311 1772.6 234.655 1782.9 233.014 1789.6 C 230.964 1797.98 225.2 1801.69 218.344 1805.83 C 200.018 1812.8 155.668 1809.98 134.09 1809.99 L 133.839 1752.71 L 147.033 1752.48 z"/>
<path transform="translate(0,0)" fill="url(#Gradient5)" d="M 133.977 1657.87 C 153.818 1657.72 180.329 1656.49 199.522 1658.61 C 234.458 1662.48 230.786 1710.34 192.05 1711.94 C 178.969 1712.4 165.876 1712.46 152.791 1712.15 C 146.596 1712.39 140.396 1712.48 134.197 1712.41 C 134.314 1694.23 134.241 1676.05 133.977 1657.87 z"/>
<path transform="translate(0,0)" fill="rgb(229,229,228)" d="M 152.791 1712.15 C 163.494 1708.62 182.6 1701.49 192.05 1711.94 C 178.969 1712.4 165.876 1712.46 152.791 1712.15 z"/>
<path transform="translate(0,0)" fill="rgb(235,176,70)" d="M 1709.3 1602.29 L 1760.08 1602.2 L 1760.18 1635.97 C 1761.04 1644.72 1763.41 1648.76 1765.02 1656.24 C 1766.99 1665.41 1766.7 1685.66 1765.13 1695.07 L 1764.15 1695.72 C 1763.9 1692.12 1763.22 1687.24 1762.82 1683.66 C 1762.27 1678.73 1763.88 1657.1 1762.52 1653.59 C 1762.53 1676.38 1761.48 1698.98 1761.45 1721.23 L 1761.45 1805.37 C 1761.52 1818.28 1762.63 1839.39 1761.35 1852.87 C 1761.28 1853.63 1752.86 1860.21 1750.3 1864.21 C 1739.72 1880.8 1712.84 1870.25 1697.07 1871.05 C 1689.84 1871.43 1680.48 1873.26 1673.52 1874.84 C 1643.64 1881.59 1605.35 1876.14 1590.1 1846.07 C 1589.7 1845.28 1586.53 1844.61 1585.54 1844.52 C 1582.62 1835.72 1580.94 1825.97 1575.2 1818.76 C 1573.21 1818.99 1574.14 1819.08 1572.41 1818.6 C 1570.08 1812.17 1574.62 1815.24 1570.97 1806.64 C 1566.59 1796.33 1562.43 1782.86 1564.09 1771.67 L 1564.01 1770.2 C 1563.66 1763.19 1563.6 1756.72 1564 1749.56 C 1567.5 1686.22 1632.26 1648.15 1688.77 1677.19 C 1696.05 1680.92 1702.28 1687.3 1708.32 1692.95 C 1708.06 1663.2 1708.91 1632.16 1709.3 1602.29 z"/>
<path transform="translate(0,0)" fill="rgb(178,178,178)" d="M 1760.18 1635.97 C 1761.04 1644.72 1763.41 1648.76 1765.02 1656.24 C 1766.99 1665.41 1766.7 1685.66 1765.13 1695.07 L 1764.15 1695.72 C 1763.9 1692.12 1763.22 1687.24 1762.82 1683.66 C 1762.27 1678.73 1763.88 1657.1 1762.52 1653.59 C 1762.53 1676.38 1761.48 1698.98 1761.45 1721.23 L 1761.45 1805.37 C 1761.52 1818.28 1762.63 1839.39 1761.35 1852.87 C 1761.28 1853.63 1752.86 1860.21 1750.3 1864.21 C 1739.72 1880.8 1712.84 1870.25 1697.07 1871.05 C 1689.84 1871.43 1680.48 1873.26 1673.52 1874.84 C 1643.64 1881.59 1605.35 1876.14 1590.1 1846.07 C 1589.7 1845.28 1586.53 1844.61 1585.54 1844.52 C 1582.62 1835.72 1580.94 1825.97 1575.2 1818.76 C 1573.21 1818.99 1574.14 1819.08 1572.41 1818.6 C 1570.08 1812.17 1574.62 1815.24 1570.97 1806.64 C 1566.59 1796.33 1562.43 1782.86 1564.09 1771.67 C 1569.22 1801.48 1578.13 1823.63 1604.71 1840.72 C 1629.54 1856.68 1663.64 1857.62 1690.24 1845.51 C 1696.07 1842.85 1703.87 1833.74 1710.35 1832.32 C 1711.43 1835 1710.97 1846.98 1710.93 1850.63 C 1724.95 1851.65 1744.31 1851.04 1758.75 1850.98 C 1761.04 1780 1759.55 1707.23 1760.18 1635.97 z"/>
<path transform="translate(0,0)" fill="url(#Gradient4)" d="M 1621.85 1785.73 C 1615.5 1774.17 1614.13 1757.5 1617.32 1744.86 C 1620.18 1733.33 1627.67 1723.5 1638.02 1717.67 C 1649.76 1710.99 1663.72 1709.43 1676.65 1713.33 C 1707.3 1722.88 1713.89 1755.19 1705.39 1782.51 C 1686.82 1818.95 1642.25 1820.26 1621.85 1785.73 z"/>
<path transform="translate(0,0)" fill="rgb(178,178,178)" d="M 1621.85 1785.73 C 1615.5 1774.17 1614.13 1757.5 1617.32 1744.86 C 1620.18 1733.33 1627.67 1723.5 1638.02 1717.67 C 1649.76 1710.99 1663.72 1709.43 1676.65 1713.33 C 1707.3 1722.88 1713.89 1755.19 1705.39 1782.51 C 1703.64 1775.07 1701.32 1766.71 1701.17 1759.16 L 1702.03 1758.78 C 1704.3 1763.06 1705.03 1764.83 1706.6 1769.42 C 1708.77 1723.66 1634.59 1723.85 1622.49 1759.11 C 1624.29 1760.99 1624.79 1761.49 1625.64 1763.96 C 1624.64 1772.01 1622.71 1776.88 1621.85 1785.73 z"/>
<path transform="translate(0,0)" fill="rgb(174,52,42)" d="M 542.144 1182.05 C 523.038 1153.77 543.083 1122.19 571.939 1132.18 C 586.984 1137.39 625.743 1172.9 638.841 1183.83 L 727.417 1257.29 L 823.674 1336.76 C 837.902 1348.53 860.596 1365.2 872.93 1379.41 C 878.107 1385.37 876.81 1399.63 873.026 1407.14 C 873.991 1409.93 874.276 1410.07 874.135 1412.94 C 860.894 1419.8 870.437 1423.56 865.715 1430.45 C 840.631 1467.01 797.433 1416.11 785.148 1405.6 L 663.204 1302.11 C 653.206 1293.48 636.403 1283.23 624.992 1274.28 C 601.132 1255.56 580.058 1233.94 558.656 1212.48 C 552.521 1206.32 554.847 1200.04 551.928 1194.69 C 548.994 1189.31 544.932 1190.98 542.144 1182.05 z"/>
<path transform="translate(0,0)" fill="rgb(178,178,178)" d="M 542.144 1182.05 C 558.122 1196.75 578.687 1212.19 595.694 1226.34 C 636.382 1260.33 677.251 1294.1 718.301 1327.65 L 790.967 1387.22 C 803.659 1397.63 816.991 1409.89 830.559 1418.78 C 844.981 1428.22 861.769 1420.39 871.72 1408.7 L 873.026 1407.14 C 873.991 1409.93 874.276 1410.07 874.135 1412.94 C 860.894 1419.8 870.437 1423.56 865.715 1430.45 C 840.631 1467.01 797.433 1416.11 785.148 1405.6 L 663.204 1302.11 C 653.206 1293.48 636.403 1283.23 624.992 1274.28 C 601.132 1255.56 580.058 1233.94 558.656 1212.48 C 552.521 1206.32 554.847 1200.04 551.928 1194.69 C 548.994 1189.31 544.932 1190.98 542.144 1182.05 z"/>
<path transform="translate(0,0)" fill="rgb(235,176,70)" d="M 1788.35 1781.51 C 1787.28 1778.03 1786.89 1774.16 1786.51 1770.58 C 1780.82 1717.21 1818.49 1671.13 1872.51 1667.93 C 1930.9 1664.47 1967.73 1699.16 1972.22 1756.43 C 1973.48 1762.34 1975.16 1774.26 1974.4 1780.03 C 1971.78 1782.79 1972.04 1782.68 1968.41 1783.76 L 1967.18 1782.97 L 1966.74 1780.47 C 1964.53 1783.72 1962.64 1788.95 1961.7 1790.17 C 1958.36 1794.47 1950.86 1800.86 1946.72 1804.57 C 1947.55 1807.81 1951.93 1809.01 1954.43 1813.3 L 1954.26 1815.16 C 1957.63 1819.1 1957.79 1818.14 1958.73 1822.58 C 1956.47 1827.44 1952.73 1828.79 1950.88 1831.34 C 1947.78 1839.49 1940.39 1838.24 1937.02 1843.76 C 1934.59 1847.75 1939.99 1858.88 1936.38 1864.12 C 1927.78 1876.6 1917.72 1874.15 1905.1 1877.9 C 1899.72 1879.5 1886.22 1878.69 1879.97 1878.58 C 1857.76 1878.38 1836.36 1870.22 1819.67 1855.58 C 1817.52 1853.69 1812.93 1848.24 1810.42 1845.63 L 1809.61 1848.1 L 1808.45 1848.53 L 1807.55 1847.11 L 1809.3 1843.81 L 1808.22 1842.54 C 1806.26 1845.78 1807.43 1845.31 1804.93 1846.08 C 1804.43 1844.18 1804.54 1844.86 1804.3 1843.09 C 1803.93 1840.23 1799.07 1838.15 1797.88 1834.99 L 1802.09 1836.85 L 1802.73 1836.34 C 1799.88 1830.38 1801.98 1828.86 1799.88 1823.79 C 1793.84 1822.73 1799.05 1816.12 1797.62 1811.4 C 1795.55 1804.55 1790.56 1800.91 1789.6 1793.46 C 1788.85 1794.71 1787.79 1800.12 1787.39 1801.89 C 1785.28 1795.57 1787.73 1789.26 1788.21 1783.46 L 1788.35 1781.51 z"/>
<path transform="translate(0,0)" fill="rgb(178,178,178)" d="M 1788.35 1781.51 C 1803.25 1838.76 1851.86 1861.39 1908.49 1851.03 C 1925.3 1847.96 1936.98 1840.69 1950.88 1831.34 C 1947.78 1839.49 1940.39 1838.24 1937.02 1843.76 C 1934.59 1847.75 1939.99 1858.88 1936.38 1864.12 C 1927.78 1876.6 1917.72 1874.15 1905.1 1877.9 C 1899.72 1879.5 1886.22 1878.69 1879.97 1878.58 C 1857.76 1878.38 1836.36 1870.22 1819.67 1855.58 C 1817.52 1853.69 1812.93 1848.24 1810.42 1845.63 L 1809.61 1848.1 L 1808.45 1848.53 L 1807.55 1847.11 L 1809.3 1843.81 L 1808.22 1842.54 C 1806.26 1845.78 1807.43 1845.31 1804.93 1846.08 C 1804.43 1844.18 1804.54 1844.86 1804.3 1843.09 C 1803.93 1840.23 1799.07 1838.15 1797.88 1834.99 L 1802.09 1836.85 L 1802.73 1836.34 C 1799.88 1830.38 1801.98 1828.86 1799.88 1823.79 C 1793.84 1822.73 1799.05 1816.12 1797.62 1811.4 C 1795.55 1804.55 1790.56 1800.91 1789.6 1793.46 C 1788.85 1794.71 1787.79 1800.12 1787.39 1801.89 C 1785.28 1795.57 1787.73 1789.26 1788.21 1783.46 L 1788.35 1781.51 z"/>
<path transform="translate(0,0)" fill="rgb(178,178,178)" d="M 1972.22 1756.43 C 1973.48 1762.34 1975.16 1774.26 1974.4 1780.03 C 1971.78 1782.79 1972.04 1782.68 1968.41 1783.76 L 1967.18 1782.97 L 1966.74 1780.47 C 1964.53 1783.72 1962.64 1788.95 1961.7 1790.17 C 1958.36 1794.47 1950.86 1800.86 1946.72 1804.57 C 1947.55 1807.81 1951.93 1809.01 1954.43 1813.3 L 1954.26 1815.16 C 1951.45 1813.39 1934.61 1796.93 1931.18 1793.66 C 1902.45 1820.81 1847.4 1820.33 1838.01 1776.72 C 1867.12 1777.19 1895.91 1777.51 1925.04 1776.8 C 1935.64 1776.54 1960.27 1778.01 1969.78 1776.07 C 1973.71 1771.72 1972.39 1762.53 1972.22 1756.43 z"/>
<path transform="translate(0,0)" fill="url(#Gradient3)" d="M 1878.66 1708.36 C 1899.12 1707.82 1916.95 1719.47 1922.44 1740.74 C 1923.06 1743.15 1921.54 1744.7 1920.15 1746.29 C 1915.4 1747.73 1891.96 1746.97 1885.25 1746.91 L 1837.33 1746.9 C 1842.51 1722.47 1853.57 1711.2 1878.66 1708.36 z"/>
<path transform="translate(0,0)" fill="rgb(174,52,42)" d="M 704.374 1785.19 C 699.225 1753.87 701.934 1725.33 722.802 1699.71 C 753.292 1662.01 818.275 1656.95 855.118 1687.91 C 878.187 1707.29 883.714 1733.36 886.046 1761.88 C 887.38 1766.94 889.105 1776.09 887.65 1781.15 C 884.445 1784.68 880.356 1784.62 879.886 1785.35 C 875.185 1792.71 867.593 1800.52 863.563 1808.04 L 864.309 1809.75 C 869.127 1811.64 870.309 1806.88 872.02 1809.08 C 871.308 1812.99 871.043 1813.09 869.171 1816.45 C 872.856 1819.68 872.914 1818.7 873.866 1822.58 C 872.699 1826.2 871.754 1826.42 868.893 1828.82 L 862.118 1834.57 C 863.015 1838.96 853.632 1840.95 853.177 1842.36 C 850.843 1849.56 853.297 1858.2 848.599 1864.86 C 838.847 1878.68 816.325 1877.74 801.536 1877.71 C 782.241 1877.72 760.192 1874.71 744.092 1863.07 C 728.17 1851.56 720.665 1830.53 713.57 1813.11 C 709.525 1803.18 705.084 1797.75 703.106 1786.58 L 704.374 1785.19 z"/>
<path transform="translate(0,0)" fill="rgb(178,178,178)" d="M 886.046 1761.88 C 887.38 1766.94 889.105 1776.09 887.65 1781.15 C 884.445 1784.68 880.356 1784.62 879.886 1785.35 C 875.185 1792.71 867.593 1800.52 863.563 1808.04 L 864.309 1809.75 C 869.127 1811.64 870.309 1806.88 872.02 1809.08 C 871.308 1812.99 871.043 1813.09 869.171 1816.45 C 863.144 1812.69 851.507 1799.69 846.211 1793.98 C 825.069 1810.33 804.748 1819.07 777.53 1808.17 C 763.706 1802.64 757 1791.33 752.067 1777.87 C 796.194 1776.31 841.439 1777.93 885.652 1776.99 L 886.046 1761.88 z"/>
<path transform="translate(0,0)" fill="rgb(178,178,178)" d="M 704.374 1785.19 C 709.677 1799.08 711.773 1808.07 721.629 1819.89 C 749.824 1853.67 797.614 1859.29 837.812 1847.27 C 845.402 1845 856.395 1836.31 862.118 1834.57 C 863.015 1838.96 853.632 1840.95 853.177 1842.36 C 850.843 1849.56 853.297 1858.2 848.599 1864.86 C 838.847 1878.68 816.325 1877.74 801.536 1877.71 C 782.241 1877.72 760.192 1874.71 744.092 1863.07 C 728.17 1851.56 720.665 1830.53 713.57 1813.11 C 709.525 1803.18 705.084 1797.75 703.106 1786.58 L 704.374 1785.19 z"/>
<path transform="translate(0,0)" fill="url(#Gradient2)" d="M 787.922 1708.29 C 818.062 1706.9 832.248 1717.3 838.763 1747.15 L 806.25 1747.22 L 752.021 1747 C 756.659 1725.65 765.826 1713.31 787.922 1708.29 z"/>
<path transform="translate(0,0)" fill="rgb(235,176,70)" d="M 1378.64 1689.82 C 1390.29 1683 1400.41 1677.61 1413.45 1673.86 C 1466.43 1658.61 1534.36 1667.86 1537.15 1735.57 C 1539.42 1746.99 1539.83 1836.07 1540.23 1836.53 C 1540.76 1836.04 1541.28 1835.56 1541.8 1835.07 C 1543.72 1839.73 1543.84 1847.08 1540.88 1851.88 C 1535.25 1861.04 1526.43 1871.16 1516.01 1874.97 C 1501.93 1878.17 1485.93 1869.03 1471.47 1874.18 C 1465.44 1876.32 1451.14 1874.72 1444.24 1877.73 C 1438.26 1879.33 1422.71 1879.67 1416.63 1877.45 C 1397.71 1870.53 1392.59 1868.99 1383.42 1849.91 C 1382.3 1847.58 1381.53 1843.42 1381.09 1840.9 C 1379 1828.81 1369.17 1826.31 1370.8 1812.48 C 1367.77 1781.84 1374.77 1765.41 1403.68 1752.34 C 1414.23 1741.74 1463.27 1746.74 1478.58 1743.66 L 1479.33 1742.36 C 1469.65 1732.99 1455.77 1738.16 1443.98 1737.44 C 1430.14 1736.6 1405.93 1744.01 1397.65 1729.42 C 1395.94 1726.4 1395.96 1726.23 1392.42 1726.24 C 1389.86 1724.46 1387.67 1718.1 1388.59 1714.99 C 1385.46 1706.18 1381.97 1698.42 1378.64 1689.82 z"/>
<path transform="translate(0,0)" fill="rgb(178,178,178)" d="M 1537.15 1735.57 C 1539.42 1746.99 1539.83 1836.07 1540.23 1836.53 C 1540.76 1836.04 1541.28 1835.56 1541.8 1835.07 C 1543.72 1839.73 1543.84 1847.08 1540.88 1851.88 C 1535.25 1861.04 1526.43 1871.16 1516.01 1874.97 C 1501.93 1878.17 1485.93 1869.03 1471.47 1874.18 C 1465.44 1876.32 1451.14 1874.72 1444.24 1877.73 C 1438.26 1879.33 1422.71 1879.67 1416.63 1877.45 C 1397.71 1870.53 1392.59 1868.99 1383.42 1849.91 C 1382.3 1847.58 1381.53 1843.42 1381.09 1840.9 C 1379 1828.81 1369.17 1826.31 1370.8 1812.48 C 1384.26 1851.56 1417.25 1859.03 1454.41 1851.38 C 1467.54 1848.67 1478.91 1840.5 1489.51 1832.74 C 1488.95 1838.76 1488.58 1844.8 1488.42 1850.85 C 1501.68 1852.07 1523.5 1851.31 1536.99 1851.14 C 1537.63 1840.51 1537.28 1825.4 1537.33 1814.34 C 1537.45 1788.08 1537.39 1761.82 1537.15 1735.57 z"/>
<path transform="translate(0,0)" fill="rgb(178,178,178)" d="M 1393.86 1725.46 C 1413.34 1716.08 1425.62 1710.41 1447.91 1709.58 C 1466.09 1708.91 1491.81 1722.05 1485.63 1743.29 C 1483.32 1745.89 1482.53 1745.95 1478.14 1746.03 C 1450.6 1746.51 1430.65 1745.9 1403.68 1752.34 C 1414.23 1741.74 1463.27 1746.74 1478.58 1743.66 L 1479.33 1742.36 C 1469.65 1732.99 1455.77 1738.16 1443.98 1737.44 C 1430.14 1736.6 1405.93 1744.01 1397.65 1729.42 C 1395.94 1726.4 1395.96 1726.23 1392.42 1726.24 C 1389.86 1724.46 1387.67 1718.1 1388.59 1714.99 C 1390.93 1718.23 1392.25 1721.79 1393.86 1725.46 z"/>
<path transform="translate(0,0)" fill="rgb(178,178,178)" d="M 1444.66 1777.27 C 1451.79 1776.63 1482.67 1774.66 1486.47 1780.02 C 1488.27 1800.48 1480.1 1809.1 1462.33 1816.56 C 1451.11 1819.03 1438.71 1820.16 1428.4 1813.66 C 1419.85 1808.26 1415.74 1796.6 1422.41 1787.98 C 1428.28 1780.4 1435.65 1778.62 1444.66 1777.27 z"/>
<path transform="translate(0,0)" fill="rgb(174,52,42)" d="M 315.142 1669.55 C 332.174 1669.85 349.208 1669.95 366.241 1669.86 C 366.615 1699.63 367.088 1729.3 366.317 1759.06 C 366.205 1773.19 366.166 1790.14 377.121 1800.7 C 391.086 1814.16 416.258 1810.27 428.781 1796.75 C 443.92 1780.4 442.153 1757.61 442.11 1736.97 C 442.064 1714.63 441.988 1692.25 441.823 1669.9 L 493.081 1670.01 L 492.993 1769.49 C 492.966 1784.5 493.574 1805.21 492.805 1819.84 C 495.951 1827.83 497.793 1850.07 493.244 1857.49 C 477.912 1882.5 452.037 1870.19 431.744 1873.56 C 403.402 1878.27 366.621 1886.25 342.761 1864.47 C 338.358 1860.45 333.853 1853.61 329.368 1848.95 C 329.107 1850.21 329.613 1852.68 329.808 1854.11 L 328.793 1853.59 C 325.468 1845.73 325.962 1835.16 324.134 1826.77 C 322.469 1819.14 315.21 1812.93 317.873 1804.65 C 313.516 1782.61 314.677 1761.68 314.779 1739.29 L 315.142 1669.55 z"/>
<path transform="translate(0,0)" fill="rgb(178,178,178)" d="M 317.873 1804.65 C 333.199 1847.89 365.43 1862.44 410.46 1850.02 C 423.505 1846.43 434.501 1836.1 443.974 1826.82 L 443.987 1851.01 C 460.114 1851.03 476.811 1851.26 492.889 1850.94 C 492.822 1841.11 492.443 1829.54 492.805 1819.84 C 495.951 1827.83 497.793 1850.07 493.244 1857.49 C 477.912 1882.5 452.037 1870.19 431.744 1873.56 C 403.402 1878.27 366.621 1886.25 342.761 1864.47 C 338.358 1860.45 333.853 1853.61 329.368 1848.95 C 329.107 1850.21 329.613 1852.68 329.808 1854.11 L 328.793 1853.59 C 325.468 1845.73 325.962 1835.16 324.134 1826.77 C 322.469 1819.14 315.21 1812.93 317.873 1804.65 z"/>
<path transform="translate(0,0)" fill="rgb(235,176,70)" d="M 1036.69 1622.5 C 1036.86 1618.76 1036.15 1617.29 1038.12 1615.38 C 1093.8 1613.24 1151.33 1616.56 1207.15 1615.15 C 1216.13 1614.93 1226.66 1615.14 1235.61 1615.76 C 1235.72 1625.75 1235.48 1638.91 1236.02 1648.64 C 1236.81 1650.8 1238.83 1659.23 1237.68 1660.69 C 1236.41 1662.3 1224.06 1678.44 1224.15 1678.4 C 1200.8 1690.71 1162.2 1673.02 1165.32 1715.94 C 1165.94 1724.41 1164.65 1736.44 1165.7 1745.74 C 1166.44 1745.21 1167.18 1744.67 1167.9 1744.12 C 1168.45 1748.27 1166.01 1757.28 1165.87 1762.51 C 1165.45 1778.84 1164.61 1794.93 1165.05 1811.44 C 1165.3 1820.86 1172.61 1843.82 1168.02 1853.5 C 1167.52 1854.56 1161.81 1860.05 1160.62 1861.14 L 1159.6 1859.49 C 1159.39 1859.81 1159.18 1860.13 1158.97 1860.44 L 1157.91 1861.99 L 1157.18 1863.07 C 1153.45 1868.55 1149.07 1872.19 1142.38 1873.54 C 1136.5 1874.77 1130.37 1873.48 1125.49 1869.97 C 1120.8 1866.67 1120.13 1860.98 1114.9 1855.34 L 1114.02 1855.58 L 1113.63 1859.08 C 1111.46 1859.84 1112.62 1859.65 1109.87 1858.66 C 1108.51 1856.91 1108.15 1763.81 1109.05 1755.74 C 1109.51 1742.17 1109 1726.03 1108.91 1712.27 C 1107.31 1708.95 1106.95 1695.35 1107.6 1691.51 C 1085.5 1677.49 1056.2 1694.59 1047.58 1664.44 C 1046.57 1660.93 1040.9 1663.32 1036.54 1661.87 C 1034.9 1655.76 1036.4 1630.09 1036.69 1622.5 z"/>
<path transform="translate(0,0)" fill="rgb(178,178,178)" d="M 1236.02 1648.64 C 1236.81 1650.8 1238.83 1659.23 1237.68 1660.69 C 1236.41 1662.3 1224.06 1678.44 1224.15 1678.4 C 1200.8 1690.71 1162.2 1673.02 1165.32 1715.94 C 1165.94 1724.41 1164.65 1736.44 1165.7 1745.74 C 1166.44 1745.21 1167.18 1744.67 1167.9 1744.12 C 1168.45 1748.27 1166.01 1757.28 1165.87 1762.51 C 1165.45 1778.84 1164.61 1794.93 1165.05 1811.44 C 1165.3 1820.86 1172.61 1843.82 1168.02 1853.5 C 1167.52 1854.56 1161.81 1860.05 1160.62 1861.14 L 1159.6 1859.49 C 1159.39 1859.81 1159.18 1860.13 1158.97 1860.44 L 1157.91 1861.99 L 1157.18 1863.07 C 1153.45 1868.55 1149.07 1872.19 1142.38 1873.54 C 1136.5 1874.77 1130.37 1873.48 1125.49 1869.97 C 1120.8 1866.67 1120.13 1860.98 1114.9 1855.34 L 1114.02 1855.58 L 1113.63 1859.08 C 1111.46 1859.84 1112.62 1859.65 1109.87 1858.66 C 1108.51 1856.91 1108.15 1763.81 1109.05 1755.74 C 1110.05 1761.71 1109.76 1781.07 1109.79 1788.15 L 1110.07 1851.29 C 1127.61 1851.43 1145.16 1851.38 1162.71 1851.12 C 1163.82 1834.7 1162.93 1806.94 1162.94 1789.44 L 1163.05 1660.12 C 1174.69 1660.01 1226.7 1662.18 1234.19 1660.08 C 1235.93 1656.6 1235.78 1652.59 1236.02 1648.64 z"/>
<path transform="translate(0,0)" fill="rgb(178,178,178)" d="M 1108.91 1712.27 C 1107.31 1708.95 1106.95 1695.35 1107.6 1691.51 C 1085.5 1677.49 1056.2 1694.59 1047.58 1664.44 C 1046.57 1660.93 1040.9 1663.32 1036.54 1661.87 C 1034.9 1655.76 1036.4 1630.09 1036.69 1622.5 C 1036.66 1634.92 1036.5 1647.96 1036.93 1660.36 C 1061.16 1661.29 1085.39 1660.7 1109.61 1661 C 1109.22 1676.19 1109.94 1698.44 1108.91 1712.27 z"/>
<path transform="translate(0,0)" fill="rgb(174,52,42)" d="M 921.171 1626.93 C 938.321 1626.53 955.832 1626.53 973.014 1626.34 C 972.875 1642.65 973.015 1658.96 973.435 1675.26 C 988.207 1675.58 1002.98 1675.8 1017.75 1675.91 C 1018.88 1686.99 1018.55 1706.32 1018.69 1718.01 L 1017.56 1718.72 L 1016.53 1715.87 C 1012.96 1715.24 1011.83 1715.62 1008.32 1716.18 C 1006.15 1719.45 1006.75 1725.17 1005.67 1729.18 C 1003 1739.07 985.632 1742.86 975.492 1748.92 C 975.39 1759.11 974.694 1782.15 975.799 1791.82 L 977.305 1788.21 L 978.711 1788.16 C 983.842 1796.83 982.672 1798.36 982.39 1809.25 C 992.85 1816.15 1006.62 1808.75 1016.27 1804.03 C 1017.88 1812.07 1028.64 1836.26 1025.98 1842.03 C 1025.93 1842.13 1025.84 1842.22 1025.77 1842.31 C 1021.63 1849.04 1017.89 1847.07 1013.68 1850.49 C 1010.37 1853.17 1012.63 1868.78 1007.12 1872.21 C 997.599 1878.29 984.217 1879.49 973.692 1877.96 C 947.318 1874.14 938.98 1860.54 933.039 1836.71 C 932.061 1832.79 923.745 1823.23 922.835 1817.67 C 922.063 1812.95 922.322 1811.6 922.982 1806.81 C 921.601 1797.71 921.399 1782.99 920.986 1773.42 C 915.725 1760.96 922.087 1732.76 917.359 1719.58 C 914.903 1712.74 902.542 1716.86 894.791 1713.68 L 894.802 1676.15 L 921.102 1676.01 L 921.171 1626.93 z"/>
<path transform="translate(0,0)" fill="rgb(178,178,178)" d="M 922.982 1806.81 C 936.066 1859.87 983.995 1861.72 1025.77 1842.31 C 1021.63 1849.04 1017.89 1847.07 1013.68 1850.49 C 1010.37 1853.17 1012.63 1868.78 1007.12 1872.21 C 997.599 1878.29 984.217 1879.49 973.692 1877.96 C 947.318 1874.14 938.98 1860.54 933.039 1836.71 C 932.061 1832.79 923.745 1823.23 922.835 1817.67 C 922.063 1812.95 922.322 1811.6 922.982 1806.81 z"/>
<path transform="translate(0,0)" fill="url(#Gradient1)" d="M 1017.75 1675.91 C 1018.88 1686.99 1018.55 1706.32 1018.69 1718.01 L 1017.56 1718.72 L 1016.53 1715.87 C 1012.96 1715.24 1011.83 1715.62 1008.32 1716.18 C 1006.15 1719.45 1006.75 1725.17 1005.67 1729.18 C 1003 1739.07 985.632 1742.86 975.492 1748.92 C 975.39 1759.11 974.694 1782.15 975.799 1791.82 L 977.305 1788.21 L 978.711 1788.16 C 983.842 1796.83 982.672 1798.36 982.39 1809.25 C 973.014 1801.15 972.722 1792.35 972.656 1780.53 C 972.529 1757.81 972.851 1735.1 972.469 1712.37 C 986.337 1711.93 1003.3 1712.83 1017.4 1713.24 C 1017.39 1701.96 1016.72 1686.72 1017.75 1675.91 z"/>
<path transform="translate(0,0)" fill="rgb(178,178,178)" d="M 894.791 1713.68 C 903.771 1712.81 912.869 1713.07 921.898 1713.14 C 921.551 1730.55 922.086 1757.32 920.986 1773.42 C 915.725 1760.96 922.087 1732.76 917.359 1719.58 C 914.903 1712.74 902.542 1716.86 894.791 1713.68 z"/>
<path transform="translate(0,0)" fill="rgb(174,52,42)" d="M 532.308 1603.37 C 549.127 1603.27 567.045 1602.86 583.752 1603.62 L 583.917 1674.71 C 586.942 1682.37 585.467 1741.25 585.613 1753.49 C 588.602 1746.43 585.785 1714.92 587.446 1712.15 C 589.019 1713.66 588.765 1737.73 588.519 1741.87 C 587.217 1763.77 596.962 1812.06 587.874 1830.8 L 587.14 1830.32 L 586.922 1827.87 C 581.014 1838.43 590.455 1850.01 583.529 1857.19 C 582.171 1856.88 580.919 1856.65 579.525 1856.55 C 573.016 1868.08 569.927 1878.58 553.153 1871.29 C 545.101 1867.8 542.155 1856.92 534.569 1853.41 L 533.22 1853.9 L 532.892 1858.84 L 531.678 1858.9 C 528.802 1854.93 530.621 1849.39 530.967 1844.36 C 533.705 1804.59 526.703 1756.9 531.894 1717.84 C 532.993 1681.24 532.237 1640.4 532.308 1603.37 z"/>
<path transform="translate(0,0)" fill="rgb(178,178,178)" d="M 583.917 1674.71 C 586.942 1682.37 585.467 1741.25 585.613 1753.49 C 588.602 1746.43 585.785 1714.92 587.446 1712.15 C 589.019 1713.66 588.765 1737.73 588.519 1741.87 C 587.217 1763.77 596.962 1812.06 587.874 1830.8 L 587.14 1830.32 L 586.922 1827.87 C 581.014 1838.43 590.455 1850.01 583.529 1857.19 C 582.171 1856.88 580.919 1856.65 579.525 1856.55 C 573.016 1868.08 569.927 1878.58 553.153 1871.29 C 545.101 1867.8 542.155 1856.92 534.569 1853.41 L 533.22 1853.9 L 532.892 1858.84 L 531.678 1858.9 C 528.802 1854.93 530.621 1849.39 530.967 1844.36 C 533.705 1804.59 526.703 1756.9 531.894 1717.84 C 532.705 1761.52 532.143 1807.31 531.99 1851.1 C 548.997 1851.18 566.004 1851.11 583.01 1850.88 L 583.095 1743.22 C 583.145 1721.31 582.858 1696.48 583.917 1674.71 z"/>
<path transform="translate(0,0)" fill="rgb(235,176,70)" d="M 1299.9 1694.19 C 1319.42 1674.78 1331.15 1667.69 1359.23 1667.18 C 1359.21 1682.79 1359.28 1698.41 1359.45 1714.02 L 1358.61 1716.25 C 1354.08 1715.65 1351.5 1714.51 1348.14 1716.31 C 1346.51 1720.41 1344.85 1730.21 1342.8 1733.04 C 1336.22 1742.12 1305.13 1750.87 1303.51 1764.37 C 1300.21 1794.15 1303.77 1825.1 1302.76 1855.1 C 1302.61 1859.56 1288.22 1868.93 1284.66 1870.9 C 1266.64 1880.89 1261.49 1858.46 1253.33 1859.01 L 1251.18 1860.88 C 1247.1 1859.19 1247.87 1855.41 1248.81 1851.41 C 1249.7 1839.85 1248.77 1810.35 1248.79 1797.24 L 1248.94 1669.12 C 1265.34 1669.54 1282.65 1668.47 1298.92 1669.73 L 1299.9 1694.19 z"/>
<path transform="translate(0,0)" fill="rgb(178,178,178)" d="M 1300.71 1851.75 C 1301.94 1829.6 1299.73 1802.58 1300.43 1780 C 1300.75 1769.72 1299.99 1758.41 1301.84 1748.26 C 1303.83 1736.98 1310.28 1726.97 1319.74 1720.51 C 1330.16 1713.52 1347.39 1711.88 1359.45 1714.02 L 1358.61 1716.25 C 1354.08 1715.65 1351.5 1714.51 1348.14 1716.31 C 1346.51 1720.41 1344.85 1730.21 1342.8 1733.04 C 1336.22 1742.12 1305.13 1750.87 1303.51 1764.37 C 1300.21 1794.15 1303.77 1825.1 1302.76 1855.1 C 1302.61 1859.56 1288.22 1868.93 1284.66 1870.9 C 1266.64 1880.89 1261.49 1858.46 1253.33 1859.01 L 1251.18 1860.88 C 1247.1 1859.19 1247.87 1855.41 1248.81 1851.41 C 1255.88 1852.28 1292.43 1851.91 1300.71 1851.75 z"/>
<path transform="translate(0,0)" fill="rgb(174,52,42)" d="M 624.869 1602.94 L 675.453 1603.16 C 676.822 1621.21 676.233 1649.7 676.269 1668.46 L 676.6 1771.1 L 676.896 1836.55 C 676.967 1843.57 678.025 1853.64 677.418 1860.25 L 676.372 1860.8 L 675.537 1859.03 C 674.735 1864.12 676.215 1864.17 673.683 1867.37 C 672.043 1864.57 672.578 1865.47 672.012 1862.02 C 666.167 1865.97 659.592 1876.09 650.627 1874.89 C 644.938 1874.14 634.808 1864.16 630.216 1863.99 L 629.05 1867.25 L 627.787 1867.37 C 626.783 1863.11 619.38 1858.34 623.931 1850.75 C 625.34 1815.04 624.567 1775.12 624.586 1739.17 C 624.985 1693.76 625.079 1648.35 624.869 1602.94 z"/>
<path transform="translate(0,0)" fill="rgb(178,178,178)" d="M 675.453 1603.16 C 676.822 1621.21 676.233 1649.7 676.269 1668.46 L 676.6 1771.1 L 676.896 1836.55 C 676.967 1843.57 678.025 1853.64 677.418 1860.25 L 676.372 1860.8 L 675.537 1859.03 C 674.735 1864.12 676.215 1864.17 673.683 1867.37 C 672.043 1864.57 672.578 1865.47 672.012 1862.02 C 666.167 1865.97 659.592 1876.09 650.627 1874.89 C 644.938 1874.14 634.808 1864.16 630.216 1863.99 L 629.05 1867.25 L 627.787 1867.37 C 626.783 1863.11 619.38 1858.34 623.931 1850.75 C 637.028 1851.93 661.026 1851.12 674.845 1850.97 L 674.913 1686.47 C 674.927 1663.35 673.726 1624.96 675.453 1603.16 z"/>
</svg>